<svg width="295" height="77" viewBox="0 0 295 77" fill="none" xmlns="http://www.w3.org/2000/svg">
<path d="M24.0296 68.6541V56.8525C21.3021 58.8457 18.3386 59.8423 15.1391 59.8423C10.4709 59.8423 6.94356 57.9933 4.55702 54.2955C2.17047 50.5977 0.977203 45.5755 0.977203 39.2288C0.977203 36.0293 1.39682 33.1576 2.23604 30.6137C3.07526 28.0698 4.18986 25.9062 5.57982 24.1228C6.96978 22.3395 8.59578 20.9757 10.4578 20.0316C12.3198 19.0875 14.2737 18.6154 16.3193 18.6154C20.5678 18.6154 24.1345 19.8218 27.0194 22.2346C28.8552 20.2414 31.3466 19.2186 34.4937 19.1661C34.8609 19.4808 35.2411 19.8742 35.6345 20.3463C36.0279 20.8184 36.3951 21.3429 36.736 21.9198C37.0769 22.4968 37.3785 23.1 37.6408 23.7294C37.903 24.3588 38.0866 24.9358 38.1915 25.4603C36.7229 26.5618 35.9886 28.45 35.9886 31.1251V75.499L35.4378 76.0498H30.6385C28.2257 76.0498 26.5211 75.499 25.5245 74.3975C24.5279 73.2961 24.0296 71.3816 24.0296 68.6541ZM18.2075 49.9289C20.358 49.9289 22.2987 49.0635 24.0296 47.3326V30.3383C22.1414 28.6074 20.4367 27.742 18.9156 27.742C15.3489 27.742 13.5656 31.6758 13.5656 39.5435C13.5656 46.4671 15.1129 49.9289 18.2075 49.9289ZM45.3511 45.759V29.6302C45.3511 26.2209 44.7217 23.5983 43.4629 21.7625C45.4036 20.0316 47.7639 19.1661 50.5438 19.1661C53.3238 19.1661 55.212 19.7956 56.2086 21.0544C57.2052 22.3132 57.7035 24.2277 57.7035 26.7978V43.4774C57.7035 45.3132 57.9133 46.6507 58.3329 47.4899C58.7525 48.3292 59.854 48.7488 61.6373 48.7488C63.3682 48.7488 65.1254 47.8571 66.9087 46.0737V19.7956C68.6396 19.4809 70.659 19.3235 72.9669 19.3235C75.2747 19.3235 77.3465 19.4809 79.1824 19.7956V47.8046C79.1824 50.637 79.9167 52.5515 81.3853 53.5481C81.123 54.5971 80.6248 55.7379 79.8904 56.9705C79.1561 58.2031 78.3956 59.1079 77.6088 59.6849C73.3078 59.5275 70.2132 57.6917 68.3249 54.1775C64.1812 57.9015 60.2736 59.7636 56.602 59.7636C52.9304 59.7636 50.1373 58.4916 48.2229 55.9477C46.3084 53.4038 45.3511 50.0076 45.3511 45.759ZM122.14 53.3907C121.878 54.4922 121.38 55.6724 120.645 56.9312C119.911 58.19 119.15 59.1079 118.364 59.6849C114.692 59.58 111.86 58.19 109.866 55.515C106.457 58.6621 102.759 60.2356 98.773 60.2356C96.7274 60.2356 94.944 59.9078 93.4229 59.2522C91.9018 58.5965 90.6168 57.718 89.5677 56.6165C88.5187 55.515 87.7319 54.2431 87.2074 52.8006C86.6829 51.3582 86.4207 49.8502 86.4207 48.2767C86.4207 46.0213 86.8272 44.0412 87.6402 42.3366C88.4531 40.6319 89.5677 39.2157 90.9839 38.088C92.4001 36.9603 94.0523 36.108 95.9406 35.531C97.8288 34.954 99.8482 34.6656 101.999 34.6656C103.205 34.6656 104.267 34.6787 105.185 34.7049C106.103 34.7311 106.903 34.7705 107.585 34.8229V33.328C107.585 30.0236 105.88 28.3714 102.471 28.3714C100.268 28.3714 96.4127 29.2106 90.9053 30.889C89.3317 29.0532 88.3351 26.1946 87.9155 22.3132C89.1744 21.8412 90.5774 21.3953 92.1247 20.9757C93.6721 20.5561 95.2587 20.1889 96.8847 19.8742C98.5107 19.5595 100.11 19.3104 101.684 19.1268C103.258 18.9432 104.674 18.8514 105.933 18.8514C107.768 18.8514 109.539 19.1137 111.243 19.6382C112.948 20.1627 114.443 20.9626 115.728 22.0379C117.013 23.1131 118.036 24.5031 118.796 26.2077C119.557 27.9124 119.937 29.9449 119.937 32.3052V48.2767C119.937 50.6895 120.671 52.3941 122.14 53.3907ZM98.3796 47.4899C98.3796 49.9551 99.7958 51.1878 102.628 51.1878C104.097 51.1878 105.749 50.4272 107.585 48.9061V42.6119C106.536 42.5595 105.657 42.5202 104.949 42.4939C104.241 42.4677 103.703 42.4546 103.336 42.4546C100.032 42.4546 98.3796 44.133 98.3796 47.4899ZM144.484 50.0863H146.609C147.238 51.8172 147.553 53.5481 147.553 55.279C147.553 57.0099 147.474 58.1376 147.317 58.6621C144.17 59.1866 141.364 59.4489 138.898 59.4489C135.332 59.4489 132.801 58.5703 131.306 56.8132C129.811 55.0561 129.064 52.2892 129.064 48.5127V1.6998L129.536 1.14906H134.335C136.8 1.14906 138.531 1.6998 139.528 2.80128C140.524 3.90276 141.023 5.81724 141.023 8.54472V46.3885C141.023 48.8537 142.177 50.0863 144.484 50.0863ZM167.93 28.8434V59.0555C167.039 59.2128 166.068 59.3308 165.019 59.4095C163.97 59.4882 162.895 59.5275 161.793 59.5275C160.692 59.5275 159.604 59.4882 158.528 59.4095C157.453 59.3308 156.47 59.2128 155.578 59.0555V33.0133C155.578 29.9711 154.345 28.4501 151.88 28.4501H150.7C150.385 27.4535 150.228 26.0635 150.228 24.2802C150.228 22.5493 150.385 21.0806 150.7 19.8742C152.064 19.7693 153.323 19.6775 154.476 19.5989C155.63 19.5202 156.679 19.4808 157.624 19.4808H159.354C162.029 19.4808 164.128 20.3201 165.649 21.9985C167.17 23.677 167.93 25.9586 167.93 28.8434ZM179.024 59.0555V28.3714L172.257 28.4501C171.943 27.1388 171.785 25.6963 171.785 24.1228C171.785 22.5493 171.943 21.0806 172.257 19.7169L178.394 19.7956C178.132 17.8549 178.001 16.0977 178.001 14.5242C178.001 10.5903 179.273 7.32522 181.817 4.72887C184.361 2.13253 187.678 0.834351 191.769 0.834351C195.861 0.834351 199.873 1.56867 203.807 3.03731C203.859 4.40105 203.623 5.8828 203.099 7.48257C202.574 9.08234 201.919 10.3018 201.132 11.1411C198.667 10.4067 196.647 10.0396 195.074 10.0396C191.56 10.0396 189.802 11.8492 189.802 15.4683C189.802 16.9894 189.907 18.458 190.117 19.8742L200.424 19.7169C200.739 21.0806 200.896 22.5493 200.896 24.1228C200.896 25.6963 200.739 27.1388 200.424 28.4501L190.983 28.2927V59.0555C189.199 59.3702 187.232 59.5275 185.082 59.5275C182.931 59.5275 180.912 59.3702 179.024 59.0555ZM223.24 28.8434V59.0555C222.349 59.2128 221.378 59.3308 220.329 59.4095C219.28 59.4882 218.205 59.5275 217.104 59.5275C216.002 59.5275 214.914 59.4882 213.838 59.4095C212.763 59.3308 211.78 59.2128 210.888 59.0555V33.0133C210.888 29.9711 209.655 28.4501 207.19 28.4501H206.01C205.695 27.4535 205.538 26.0635 205.538 24.2802C205.538 22.5493 205.695 21.0806 206.01 19.8742C207.374 19.7693 208.633 19.6775 209.787 19.5989C210.94 19.5202 211.989 19.4808 212.934 19.4808H214.664C217.34 19.4808 219.438 20.3201 220.959 21.9985C222.48 23.677 223.24 25.9586 223.24 28.8434ZM209.472 3.98144C210.993 3.14222 212.96 2.7226 215.373 2.7226C217.838 2.7226 219.752 3.14222 221.116 3.98144C221.745 5.39763 222.06 6.91872 222.06 8.54472C222.06 10.1707 221.745 11.6918 221.116 13.108C219.595 13.8948 217.602 14.2882 215.137 14.2882C212.671 14.2882 210.783 13.8948 209.472 13.108C208.842 11.6918 208.528 10.1707 208.528 8.54472C208.528 6.91872 208.842 5.39763 209.472 3.98144ZM230.164 25.4603C230.426 24.4113 230.924 23.2442 231.659 21.9592C232.393 20.6741 233.127 19.7431 233.862 19.1661C238.687 19.5333 242.044 21.9198 243.932 26.3258C245.926 21.6051 249.204 19.2448 253.767 19.2448C255.131 19.2448 256.862 19.4546 258.96 19.8742C258.96 21.5002 258.684 23.4278 258.134 25.657C257.583 27.8862 256.835 29.7876 255.891 31.3611C255 31.0464 253.662 30.7841 251.879 30.5743C249.256 30.5743 247.106 31.9118 245.427 34.5869V59.0555C243.696 59.3702 241.664 59.5275 239.33 59.5275C236.996 59.5275 234.937 59.3702 233.154 59.0555V33.6427C233.154 29.7089 232.157 26.9814 230.164 25.4603ZM293.184 43.3987H272.65C272.754 45.759 273.358 47.5948 274.459 48.9061C275.561 50.2174 277.37 50.8731 279.888 50.8731C281.147 50.8731 282.602 50.6895 284.254 50.3223C285.907 49.9552 287.808 49.352 289.959 48.5127C291.689 50.2961 292.765 52.7089 293.184 55.751C288.988 58.7408 283.848 60.2356 277.764 60.2356C274.459 60.2356 271.692 59.7111 269.463 58.6621C267.234 57.6131 265.424 56.1444 264.034 54.2562C262.645 52.3679 261.661 50.1387 261.084 47.5686C260.507 44.9985 260.219 42.1923 260.219 39.1501C260.219 36.2129 260.573 33.4985 261.281 31.0071C261.989 28.5156 263.064 26.352 264.507 24.5162C265.949 22.6804 267.785 21.238 270.014 20.1889C272.243 19.1399 274.853 18.6154 277.842 18.6154C280.36 18.6154 282.628 19.035 284.648 19.8742C286.667 20.7135 288.385 21.8674 289.801 23.336C291.217 24.8047 292.306 26.5618 293.066 28.6074C293.827 30.653 294.207 32.8822 294.207 35.295C294.207 38.4945 293.866 41.1958 293.184 43.3987ZM272.571 34.9016H282.956V34.0361C282.956 32.0954 282.524 30.4957 281.658 29.2368C280.793 27.978 279.495 27.3486 277.764 27.3486C276.085 27.3486 274.839 27.9386 274.026 29.1188C273.213 30.299 272.728 32.2266 272.571 34.9016Z" fill="#363636"/>
</svg>
